# xmcd
#
# Track frame offsets: 
#        150
#        27765
#        40430
#        61023
#        72557
#        85167
#        101064
#        123413
#        140829
#        157479
#        179438
#        207806
#        227200
#        242596
#        264861
#
# Disc length: 3802 seconds
#
# Revision: 0
# Processed by: cddbd v1.5.2PL0 Copyright (c) Steve Scherf et al.
# Submitted via: ExactAudioCopy v0.99pb5
#
DISCID=d90ed80f
DTITLE=Deak Harp - Gateway To The Blues
DYEAR=1900
DGENRE=Blues
TTITLE0=Yea My Baby
TTITLE1=Old Soul
TTITLE2=Up All Night Blues
TTITLE3=Riding The Rails
TTITLE4=Old Dodie
TTITLE5=Moving Soon
TTITLE6=Lazy River
TTITLE7=Big Fat Mama
TTITLE8=Gateway To The Blues
TTITLE9=Cone-A-Phone-A-Boogie
TTITLE10=Midnight Blues
TTITLE11=Cattle Car Blues
TTITLE12=John Henry
TTITLE13=Brocton Straight
TTITLE14=Mad Dog 20-20
EXTD=
EXTT0=
EXTT1=
EXTT2=
EXTT3=
EXTT4=
EXTT5=
EXTT6=
EXTT7=
EXTT8=
EXTT9=
EXTT10=
EXTT11=
EXTT12=
EXTT13=
EXTT14=
PLAYORDER=
